<mxfile host="app.diagrams.net" modified="2023-09-09T16:39:34.011Z" agent="Mozilla/5.0 (Windows NT 10.0; Win64; x64) AppleWebKit/537.36 (KHTML, like Gecko) Chrome/116.0.0.0 Safari/537.36" etag="S1vEFd-Rm9gdD-Hwm3cY" version="21.7.0" type="onedrive">
  <diagram name="Page-1" id="OPjfLRpLZcgSJPTTETmO">
    <mxGraphModel grid="1" page="1" gridSize="10" guides="1" tooltips="1" connect="1" arrows="1" fold="1" pageScale="1" pageWidth="1169" pageHeight="827" math="0" shadow="0">
      <root>
        <mxCell id="0" />
        <mxCell id="1" parent="0" />
        <mxCell id="Uv6PE13jiMunVCfEU0Ns-54" value="" style="rounded=0;whiteSpace=wrap;html=1;" vertex="1" parent="1">
          <mxGeometry x="210" y="100" width="440" height="860" as="geometry" />
        </mxCell>
        <mxCell id="Uv6PE13jiMunVCfEU0Ns-1" value="ลูกค้า" style="shape=umlActor;verticalLabelPosition=bottom;verticalAlign=top;html=1;outlineConnect=0;" vertex="1" parent="1">
          <mxGeometry x="50" y="170" width="30" height="60" as="geometry" />
        </mxCell>
        <mxCell id="Uv6PE13jiMunVCfEU0Ns-6" value="ไกด์" style="shape=umlActor;verticalLabelPosition=bottom;verticalAlign=top;html=1;outlineConnect=0;" vertex="1" parent="1">
          <mxGeometry x="30" y="555" width="30" height="60" as="geometry" />
        </mxCell>
        <mxCell id="Uv6PE13jiMunVCfEU0Ns-9" value="เเอดมิน" style="shape=umlActor;verticalLabelPosition=bottom;verticalAlign=top;html=1;outlineConnect=0;" vertex="1" parent="1">
          <mxGeometry x="50" y="740" width="30" height="60" as="geometry" />
        </mxCell>
        <mxCell id="Uv6PE13jiMunVCfEU0Ns-10" value="สมัครสมาชิก" style="ellipse;whiteSpace=wrap;html=1;" vertex="1" parent="1">
          <mxGeometry x="322" y="150" width="120" height="40" as="geometry" />
        </mxCell>
        <mxCell id="Uv6PE13jiMunVCfEU0Ns-12" value="เลือกใช้บริการ" style="ellipse;whiteSpace=wrap;html=1;" vertex="1" parent="1">
          <mxGeometry x="320" y="290" width="120" height="40" as="geometry" />
        </mxCell>
        <mxCell id="Uv6PE13jiMunVCfEU0Ns-13" value="ชำระเงิน" style="ellipse;whiteSpace=wrap;html=1;" vertex="1" parent="1">
          <mxGeometry x="320" y="357" width="120" height="40" as="geometry" />
        </mxCell>
        <mxCell id="Uv6PE13jiMunVCfEU0Ns-14" value="ให้คะเเนนการให้บริการ" style="ellipse;whiteSpace=wrap;html=1;" vertex="1" parent="1">
          <mxGeometry x="310" y="420" width="140" height="40" as="geometry" />
        </mxCell>
        <mxCell id="Uv6PE13jiMunVCfEU0Ns-15" style="edgeStyle=orthogonalEdgeStyle;rounded=0;orthogonalLoop=1;jettySize=auto;html=1;exitX=0.5;exitY=1;exitDx=0;exitDy=0;" edge="1" parent="1" source="Uv6PE13jiMunVCfEU0Ns-10" target="Uv6PE13jiMunVCfEU0Ns-10">
          <mxGeometry relative="1" as="geometry" />
        </mxCell>
        <mxCell id="Uv6PE13jiMunVCfEU0Ns-23" value="" style="endArrow=none;html=1;rounded=0;exitX=0.75;exitY=0.1;exitDx=0;exitDy=0;exitPerimeter=0;entryX=0;entryY=0;entryDx=0;entryDy=0;" edge="1" parent="1" source="Uv6PE13jiMunVCfEU0Ns-1" target="Uv6PE13jiMunVCfEU0Ns-10">
          <mxGeometry width="50" height="50" relative="1" as="geometry">
            <mxPoint x="109" y="204" as="sourcePoint" />
            <mxPoint x="263" y="160" as="targetPoint" />
          </mxGeometry>
        </mxCell>
        <mxCell id="Uv6PE13jiMunVCfEU0Ns-24" value="" style="endArrow=none;html=1;rounded=0;exitX=0.75;exitY=0.1;exitDx=0;exitDy=0;exitPerimeter=0;" edge="1" parent="1" source="Uv6PE13jiMunVCfEU0Ns-1" target="Uv6PE13jiMunVCfEU0Ns-11">
          <mxGeometry width="50" height="50" relative="1" as="geometry">
            <mxPoint x="110" y="207" as="sourcePoint" />
            <mxPoint x="260" y="230" as="targetPoint" />
          </mxGeometry>
        </mxCell>
        <mxCell id="Uv6PE13jiMunVCfEU0Ns-25" value="" style="endArrow=none;html=1;rounded=0;exitX=0.75;exitY=0.1;exitDx=0;exitDy=0;exitPerimeter=0;" edge="1" parent="1" source="Uv6PE13jiMunVCfEU0Ns-1" target="Uv6PE13jiMunVCfEU0Ns-12">
          <mxGeometry width="50" height="50" relative="1" as="geometry">
            <mxPoint x="107" y="205" as="sourcePoint" />
            <mxPoint x="260" y="297" as="targetPoint" />
          </mxGeometry>
        </mxCell>
        <mxCell id="Uv6PE13jiMunVCfEU0Ns-26" value="" style="endArrow=none;html=1;rounded=0;exitX=0.75;exitY=0.1;exitDx=0;exitDy=0;exitPerimeter=0;entryX=0;entryY=0;entryDx=0;entryDy=0;" edge="1" parent="1" source="Uv6PE13jiMunVCfEU0Ns-1" target="Uv6PE13jiMunVCfEU0Ns-13">
          <mxGeometry width="50" height="50" relative="1" as="geometry">
            <mxPoint x="108" y="206" as="sourcePoint" />
            <mxPoint x="260" y="367" as="targetPoint" />
          </mxGeometry>
        </mxCell>
        <mxCell id="Uv6PE13jiMunVCfEU0Ns-27" value="" style="endArrow=none;html=1;rounded=0;exitX=0.75;exitY=0.1;exitDx=0;exitDy=0;exitPerimeter=0;entryX=0;entryY=0;entryDx=0;entryDy=0;" edge="1" parent="1" source="Uv6PE13jiMunVCfEU0Ns-1" target="Uv6PE13jiMunVCfEU0Ns-14">
          <mxGeometry width="50" height="50" relative="1" as="geometry">
            <mxPoint x="108" y="203" as="sourcePoint" />
            <mxPoint x="250" y="429" as="targetPoint" />
          </mxGeometry>
        </mxCell>
        <mxCell id="Uv6PE13jiMunVCfEU0Ns-28" value="บันทึกโปรโมชั่น" style="ellipse;whiteSpace=wrap;html=1;" vertex="1" parent="1">
          <mxGeometry x="322" y="491" width="120" height="40" as="geometry" />
        </mxCell>
        <mxCell id="Uv6PE13jiMunVCfEU0Ns-11" value="เข้าสู่ระบบ" style="ellipse;whiteSpace=wrap;html=1;" vertex="1" parent="1">
          <mxGeometry x="320" y="220" width="120" height="40" as="geometry" />
        </mxCell>
        <mxCell id="Uv6PE13jiMunVCfEU0Ns-33" value="หมอดู" style="shape=umlActor;verticalLabelPosition=bottom;verticalAlign=top;html=1;outlineConnect=0;" vertex="1" parent="1">
          <mxGeometry x="80" y="555" width="30" height="60" as="geometry" />
        </mxCell>
        <mxCell id="Uv6PE13jiMunVCfEU0Ns-36" value="ผู้ให้บริการ" style="shape=umlActor;verticalLabelPosition=bottom;verticalAlign=top;html=1;outlineConnect=0;" vertex="1" parent="1">
          <mxGeometry x="56" y="384" width="30" height="60" as="geometry" />
        </mxCell>
        <mxCell id="Uv6PE13jiMunVCfEU0Ns-48" style="edgeStyle=orthogonalEdgeStyle;rounded=0;orthogonalLoop=1;jettySize=auto;html=1;" edge="1" parent="1" source="Uv6PE13jiMunVCfEU0Ns-44" target="Uv6PE13jiMunVCfEU0Ns-36">
          <mxGeometry relative="1" as="geometry">
            <mxPoint x="71" y="520" as="targetPoint" />
          </mxGeometry>
        </mxCell>
        <mxCell id="Uv6PE13jiMunVCfEU0Ns-44" value="" style="shape=partialRectangle;whiteSpace=wrap;html=1;bottom=1;right=1;left=1;top=0;fillColor=none;routingCenterX=-0.5;rotation=-180;" vertex="1" parent="1">
          <mxGeometry x="46.5" y="540" width="49" height="15" as="geometry" />
        </mxCell>
        <mxCell id="Uv6PE13jiMunVCfEU0Ns-49" value="" style="endArrow=none;html=1;rounded=0;entryX=0;entryY=0.5;entryDx=0;entryDy=0;exitX=0.5;exitY=0;exitDx=0;exitDy=0;exitPerimeter=0;" edge="1" parent="1" source="Uv6PE13jiMunVCfEU0Ns-36" target="Uv6PE13jiMunVCfEU0Ns-10">
          <mxGeometry width="50" height="50" relative="1" as="geometry">
            <mxPoint x="130" y="420" as="sourcePoint" />
            <mxPoint x="180" y="370" as="targetPoint" />
          </mxGeometry>
        </mxCell>
        <mxCell id="Uv6PE13jiMunVCfEU0Ns-50" value="" style="endArrow=none;html=1;rounded=0;entryX=0;entryY=0.5;entryDx=0;entryDy=0;exitX=0.5;exitY=0;exitDx=0;exitDy=0;exitPerimeter=0;" edge="1" parent="1" source="Uv6PE13jiMunVCfEU0Ns-36" target="Uv6PE13jiMunVCfEU0Ns-11">
          <mxGeometry width="50" height="50" relative="1" as="geometry">
            <mxPoint x="130" y="420" as="sourcePoint" />
            <mxPoint x="180" y="370" as="targetPoint" />
          </mxGeometry>
        </mxCell>
        <mxCell id="Uv6PE13jiMunVCfEU0Ns-51" value="" style="endArrow=none;html=1;rounded=0;entryX=0;entryY=0.5;entryDx=0;entryDy=0;exitX=0.5;exitY=0;exitDx=0;exitDy=0;exitPerimeter=0;" edge="1" parent="1" source="Uv6PE13jiMunVCfEU0Ns-36" target="Uv6PE13jiMunVCfEU0Ns-28">
          <mxGeometry width="50" height="50" relative="1" as="geometry">
            <mxPoint x="71" y="430" as="sourcePoint" />
            <mxPoint x="180" y="370" as="targetPoint" />
          </mxGeometry>
        </mxCell>
        <mxCell id="Uv6PE13jiMunVCfEU0Ns-53" value="ตรวจสอบการชำระเงิน" style="ellipse;whiteSpace=wrap;html=1;fontStyle=1" vertex="1" parent="1">
          <mxGeometry x="250" y="740" width="128" height="40" as="geometry" />
        </mxCell>
        <mxCell id="Uv6PE13jiMunVCfEU0Ns-71" value="เปลี่ยนสถานะการชำระเงิน" style="ellipse;whiteSpace=wrap;html=1;" vertex="1" parent="1">
          <mxGeometry x="480" y="740" width="144" height="40" as="geometry" />
        </mxCell>
        <mxCell id="Uv6PE13jiMunVCfEU0Ns-72" value="" style="endArrow=none;html=1;rounded=0;entryX=0;entryY=0.5;entryDx=0;entryDy=0;exitX=1;exitY=0.3333333333333333;exitDx=0;exitDy=0;exitPerimeter=0;" edge="1" parent="1" source="Uv6PE13jiMunVCfEU0Ns-9" target="Uv6PE13jiMunVCfEU0Ns-53">
          <mxGeometry width="50" height="50" relative="1" as="geometry">
            <mxPoint x="810" y="540" as="sourcePoint" />
            <mxPoint x="976.0000000000005" y="451" as="targetPoint" />
          </mxGeometry>
        </mxCell>
        <mxCell id="Uv6PE13jiMunVCfEU0Ns-75" value="&amp;lt;&amp;lt;extend&amp;gt;&amp;gt;" style="html=1;verticalAlign=bottom;labelBackgroundColor=none;endArrow=open;endFill=0;dashed=1;rounded=0;entryX=0;entryY=0.5;entryDx=0;entryDy=0;exitX=0.987;exitY=0.567;exitDx=0;exitDy=0;exitPerimeter=0;" edge="1" parent="1" source="Uv6PE13jiMunVCfEU0Ns-53" target="Uv6PE13jiMunVCfEU0Ns-71">
          <mxGeometry width="160" relative="1" as="geometry">
            <mxPoint x="1104" y="609" as="sourcePoint" />
            <mxPoint x="1214" y="609" as="targetPoint" />
          </mxGeometry>
        </mxCell>
        <mxCell id="Uv6PE13jiMunVCfEU0Ns-76" value="โอนเงินค่าบริการให้หมอดู" style="ellipse;whiteSpace=wrap;html=1;" vertex="1" parent="1">
          <mxGeometry x="320" y="660" width="170" height="40" as="geometry" />
        </mxCell>
        <mxCell id="Uv6PE13jiMunVCfEU0Ns-77" value="" style="endArrow=none;html=1;rounded=0;entryX=0;entryY=0.5;entryDx=0;entryDy=0;exitX=1;exitY=0.3333333333333333;exitDx=0;exitDy=0;exitPerimeter=0;" edge="1" parent="1" source="Uv6PE13jiMunVCfEU0Ns-9" target="Uv6PE13jiMunVCfEU0Ns-76">
          <mxGeometry width="50" height="50" relative="1" as="geometry">
            <mxPoint x="770" y="420" as="sourcePoint" />
            <mxPoint x="820" y="370" as="targetPoint" />
          </mxGeometry>
        </mxCell>
        <mxCell id="Uv6PE13jiMunVCfEU0Ns-84" value="ส่งหลักฐานการบริการ" style="ellipse;whiteSpace=wrap;html=1;" vertex="1" parent="1">
          <mxGeometry x="320" y="565" width="120" height="40" as="geometry" />
        </mxCell>
        <mxCell id="Uv6PE13jiMunVCfEU0Ns-85" value="" style="endArrow=none;html=1;rounded=0;entryX=0;entryY=0.5;entryDx=0;entryDy=0;exitX=0.75;exitY=0.1;exitDx=0;exitDy=0;exitPerimeter=0;" edge="1" parent="1" source="Uv6PE13jiMunVCfEU0Ns-36" target="Uv6PE13jiMunVCfEU0Ns-84">
          <mxGeometry width="50" height="50" relative="1" as="geometry">
            <mxPoint x="490" y="400" as="sourcePoint" />
            <mxPoint x="540" y="350" as="targetPoint" />
          </mxGeometry>
        </mxCell>
        <mxCell id="Uv6PE13jiMunVCfEU0Ns-87" value="ดูข้อมูล/หลักฐานการชำระเงิน" style="ellipse;whiteSpace=wrap;html=1;" vertex="1" parent="1">
          <mxGeometry x="315" y="830" width="180" height="40" as="geometry" />
        </mxCell>
        <mxCell id="Uv6PE13jiMunVCfEU0Ns-88" value="" style="endArrow=none;html=1;rounded=0;entryX=0;entryY=0.5;entryDx=0;entryDy=0;exitX=1;exitY=0.3333333333333333;exitDx=0;exitDy=0;exitPerimeter=0;" edge="1" parent="1" source="Uv6PE13jiMunVCfEU0Ns-9" target="Uv6PE13jiMunVCfEU0Ns-87">
          <mxGeometry width="50" height="50" relative="1" as="geometry">
            <mxPoint x="590" y="390" as="sourcePoint" />
            <mxPoint x="640" y="340" as="targetPoint" />
          </mxGeometry>
        </mxCell>
        <mxCell id="1ouAitNDm2ImcVy8LNw1-3" value="Bank&lt;br&gt;" style="shape=umlActor;verticalLabelPosition=bottom;verticalAlign=top;html=1;outlineConnect=0;" vertex="1" parent="1">
          <mxGeometry x="750" y="491" width="30" height="60" as="geometry" />
        </mxCell>
        <mxCell id="Fqci23a76VbgSGZIln77-1" value="เลือกช่องทางชำระเงิน" style="ellipse;whiteSpace=wrap;html=1;" vertex="1" parent="1">
          <mxGeometry x="510" y="317" width="120" height="40" as="geometry" />
        </mxCell>
        <mxCell id="Fqci23a76VbgSGZIln77-2" value="ชำระเงิน" style="ellipse;whiteSpace=wrap;html=1;" vertex="1" parent="1">
          <mxGeometry x="520" y="404" width="120" height="40" as="geometry" />
        </mxCell>
        <mxCell id="Fqci23a76VbgSGZIln77-3" value="&amp;lt;&amp;lt;extend&amp;gt;&amp;gt;" style="html=1;verticalAlign=bottom;labelBackgroundColor=none;endArrow=open;endFill=0;dashed=1;rounded=0;entryX=0;entryY=0.5;entryDx=0;entryDy=0;exitX=0.987;exitY=0.567;exitDx=0;exitDy=0;exitPerimeter=0;" edge="1" parent="1" target="Fqci23a76VbgSGZIln77-1">
          <mxGeometry x="-0.22" y="14" width="160" relative="1" as="geometry">
            <mxPoint x="440" y="378.5" as="sourcePoint" />
            <mxPoint x="544" y="375.5" as="targetPoint" />
            <mxPoint as="offset" />
          </mxGeometry>
        </mxCell>
        <mxCell id="Fqci23a76VbgSGZIln77-4" value="&amp;lt;&amp;lt;include&amp;gt;&amp;gt;" style="html=1;verticalAlign=bottom;labelBackgroundColor=none;endArrow=open;endFill=0;dashed=1;rounded=0;entryX=1;entryY=0.5;entryDx=0;entryDy=0;exitX=0;exitY=0.5;exitDx=0;exitDy=0;" edge="1" parent="1" source="Fqci23a76VbgSGZIln77-2" target="Uv6PE13jiMunVCfEU0Ns-13">
          <mxGeometry x="-0.0271" y="22" width="160" relative="1" as="geometry">
            <mxPoint x="450" y="420" as="sourcePoint" />
            <mxPoint x="502" y="401.5" as="targetPoint" />
            <mxPoint as="offset" />
          </mxGeometry>
        </mxCell>
      </root>
    </mxGraphModel>
  </diagram>
</mxfile>
